<svg width="18" height="17" viewBox="0 0 18 17" fill="none" xmlns="http://www.w3.org/2000/svg">
<path d="M6.13328 13.559C6.13328 13.6251 6.05719 13.6781 5.96124 13.6781C5.85206 13.688 5.77597 13.6351 5.77597 13.559C5.77597 13.4928 5.85206 13.4399 5.94801 13.4399C6.04726 13.4299 6.13328 13.4829 6.13328 13.559ZM5.10435 13.4101C5.08119 13.4762 5.14736 13.5523 5.24661 13.5722C5.33263 13.6053 5.43189 13.5722 5.45174 13.506C5.47159 13.4399 5.40873 13.3638 5.30947 13.334C5.22345 13.3108 5.12751 13.3439 5.10435 13.4101ZM6.56669 13.3538C6.47075 13.377 6.40458 13.4399 6.4145 13.5159C6.42443 13.5821 6.51045 13.6251 6.6097 13.602C6.70565 13.5788 6.77182 13.5159 6.76189 13.4498C6.75197 13.3869 6.66264 13.3439 6.56669 13.3538ZM8.74366 0.675781C4.15482 0.675781 0.644531 4.1596 0.644531 8.74844C0.644531 12.4175 2.95384 15.5573 6.25239 16.6623C6.67587 16.7384 6.82475 16.477 6.82475 16.262C6.82475 16.0569 6.81483 14.9254 6.81483 14.2306C6.81483 14.2306 4.4989 14.7268 4.01255 13.2447C4.01255 13.2447 3.63539 12.2819 3.0928 12.0338C3.0928 12.0338 2.33516 11.5143 3.14573 11.5242C3.14573 11.5242 3.96954 11.5904 4.4228 12.3778C5.14736 13.6549 6.36157 13.2877 6.83468 13.0693C6.91077 12.5399 7.12582 12.1727 7.36403 11.9543C5.5146 11.7492 3.64862 11.4812 3.64862 8.29849C3.64862 7.38866 3.90007 6.9321 4.42942 6.3498C4.3434 6.13475 4.06218 5.24808 4.51544 4.10335C5.20691 3.8883 6.79828 4.99664 6.79828 4.99664C7.45998 4.81137 8.1713 4.71542 8.876 4.71542C9.58071 4.71542 10.292 4.81137 10.9537 4.99664C10.9537 4.99664 12.5451 3.885 13.2366 4.10335C13.6898 5.25139 13.4086 6.13475 13.3226 6.3498C13.8519 6.9354 14.1762 7.39197 14.1762 8.29849C14.1762 11.4912 12.2275 11.7459 10.378 11.9543C10.6824 12.2157 10.9405 12.712 10.9405 13.4895C10.9405 14.6044 10.9306 15.9841 10.9306 16.2554C10.9306 16.4704 11.0828 16.7318 11.5029 16.6557C14.8114 15.5573 17.0545 12.4175 17.0545 8.74844C17.0545 4.1596 13.3325 0.675781 8.74366 0.675781ZM3.86036 12.0867C3.81735 12.1198 3.82728 12.1959 3.88352 12.2587C3.93646 12.3117 4.01255 12.3348 4.05556 12.2918C4.09857 12.2587 4.08865 12.1826 4.0324 12.1198C3.97947 12.0668 3.90337 12.0437 3.86036 12.0867ZM3.50305 11.8187C3.47989 11.8617 3.51297 11.9146 3.57914 11.9477C3.63208 11.9808 3.69825 11.9709 3.72141 11.9246C3.74457 11.8816 3.71148 11.8286 3.64531 11.7955C3.57914 11.7757 3.52621 11.7856 3.50305 11.8187ZM4.57499 12.9965C4.52206 13.0395 4.54191 13.1388 4.618 13.2016C4.6941 13.2777 4.79004 13.2877 4.83305 13.2347C4.87606 13.1917 4.85621 13.0925 4.79004 13.0296C4.71726 12.9535 4.618 12.9436 4.57499 12.9965ZM4.19783 12.5102C4.14489 12.5433 4.14489 12.6293 4.19783 12.7054C4.25076 12.7815 4.34009 12.8146 4.3831 12.7815C4.43604 12.7385 4.43604 12.6524 4.3831 12.5763C4.33678 12.5002 4.25076 12.4672 4.19783 12.5102Z" fill="#030303"/>
</svg>
