<svg width="17" height="17" viewBox="0 0 17 17" fill="none" xmlns="http://www.w3.org/2000/svg">
<path d="M3.41612 10.7865C3.41612 11.7115 2.6604 12.4672 1.7354 12.4672C0.810402 12.4672 0.0546875 11.7115 0.0546875 10.7865C0.0546875 9.8615 0.810402 9.10578 1.7354 9.10578H3.41612V10.7865ZM4.26326 10.7865C4.26326 9.8615 5.01897 9.10578 5.94397 9.10578C6.86897 9.10578 7.62469 9.8615 7.62469 10.7865V14.9951C7.62469 15.9201 6.86897 16.6758 5.94397 16.6758C5.01897 16.6758 4.26326 15.9201 4.26326 14.9951V10.7865ZM5.94397 4.03721C5.01897 4.03721 4.26326 3.2815 4.26326 2.3565C4.26326 1.4315 5.01897 0.675781 5.94397 0.675781C6.86897 0.675781 7.62469 1.4315 7.62469 2.3565V4.03721H5.94397ZM5.94397 4.88435C6.86897 4.88435 7.62469 5.64007 7.62469 6.56507C7.62469 7.49007 6.86897 8.24578 5.94397 8.24578H1.7354C0.810402 8.24578 0.0546875 7.49007 0.0546875 6.56507C0.0546875 5.64007 0.810402 4.88435 1.7354 4.88435H5.94397ZM12.6933 6.56507C12.6933 5.64007 13.449 4.88435 14.374 4.88435C15.299 4.88435 16.0547 5.64007 16.0547 6.56507C16.0547 7.49007 15.299 8.24578 14.374 8.24578H12.6933V6.56507ZM11.8461 6.56507C11.8461 7.49007 11.0904 8.24578 10.1654 8.24578C9.2404 8.24578 8.48469 7.49007 8.48469 6.56507V2.3565C8.48469 1.4315 9.2404 0.675781 10.1654 0.675781C11.0904 0.675781 11.8461 1.4315 11.8461 2.3565V6.56507ZM10.1654 13.3144C11.0904 13.3144 11.8461 14.0701 11.8461 14.9951C11.8461 15.9201 11.0904 16.6758 10.1654 16.6758C9.2404 16.6758 8.48469 15.9201 8.48469 14.9951V13.3144H10.1654ZM10.1654 12.4672C9.2404 12.4672 8.48469 11.7115 8.48469 10.7865C8.48469 9.8615 9.2404 9.10578 10.1654 9.10578H14.374C15.299 9.10578 16.0547 9.8615 16.0547 10.7865C16.0547 11.7115 15.299 12.4672 14.374 12.4672H10.1654Z" fill="#030303"/>
</svg>
